<svg width="240" height="135" viewBox="0 0 240 135" fill="none" xmlns="http://www.w3.org/2000/svg">
<path d="M16.2583 114.231C16.2583 113.587 16.1509 113.012 15.936 112.507C15.7212 112.002 15.3667 111.551 14.8726 111.154C14.3892 110.746 13.7339 110.37 12.9067 110.026C12.0903 109.671 11.0698 109.322 9.84521 108.979C8.67432 108.646 7.61621 108.28 6.6709 107.883C5.72559 107.485 4.91455 107.029 4.23779 106.513C3.57178 105.998 3.06152 105.396 2.70703 104.708C2.35254 104.01 2.17529 103.199 2.17529 102.275C2.17529 101.373 2.36865 100.551 2.75537 99.8101C3.14209 99.0688 3.68457 98.4297 4.38281 97.8926C5.0918 97.3555 5.92432 96.9419 6.88037 96.6519C7.84717 96.3618 8.90527 96.2168 10.0547 96.2168C11.6982 96.2168 13.1162 96.5283 14.3086 97.1514C15.5117 97.7744 16.4409 98.6177 17.0962 99.6812C17.7622 100.734 18.0952 101.916 18.0952 103.226H16.1133C16.1133 102.206 15.8716 101.298 15.3882 100.503C14.9155 99.6973 14.228 99.0688 13.3257 98.6177C12.4341 98.1558 11.3438 97.9248 10.0547 97.9248C8.76562 97.9248 7.68066 98.1235 6.7998 98.521C5.92969 98.9077 5.26904 99.4287 4.81787 100.084C4.37744 100.729 4.15723 101.448 4.15723 102.243C4.15723 102.802 4.26465 103.317 4.47949 103.79C4.69434 104.252 5.04346 104.687 5.52686 105.095C6.021 105.493 6.6709 105.869 7.47656 106.223C8.28223 106.567 9.27588 106.895 10.4575 107.206C11.7036 107.55 12.8101 107.931 13.7769 108.35C14.7437 108.769 15.5601 109.252 16.2261 109.8C16.8921 110.337 17.397 110.966 17.7407 111.686C18.0845 112.405 18.2563 113.243 18.2563 114.199C18.2563 115.155 18.0522 116.015 17.644 116.777C17.2466 117.529 16.6826 118.168 15.9521 118.695C15.2324 119.221 14.3784 119.624 13.3901 119.903C12.4126 120.183 11.3438 120.322 10.1836 120.322C9.1416 120.322 8.10498 120.188 7.07373 119.919C6.04248 119.651 5.09717 119.237 4.23779 118.679C3.38916 118.109 2.70703 117.379 2.19141 116.487C1.68652 115.596 1.43408 114.532 1.43408 113.297H3.3999C3.3999 114.285 3.59863 115.118 3.99609 115.794C4.39355 116.471 4.91992 117.019 5.5752 117.438C6.24121 117.857 6.97168 118.163 7.7666 118.356C8.57227 118.539 9.37793 118.63 10.1836 118.63C11.4189 118.63 12.4878 118.448 13.3901 118.083C14.3032 117.717 15.0068 117.207 15.501 116.552C16.0059 115.886 16.2583 115.112 16.2583 114.231ZM24.9595 96.5391V120H22.9775V96.5391H24.9595ZM31.9526 96.5391H33.9507L42.6196 117.196L51.3047 96.5391H53.2866L43.377 120H41.8623L31.9526 96.5391ZM31.3403 96.5391H33.0967L33.3062 109.752V120H31.3403V96.5391ZM52.1748 96.5391H53.9312V120H51.9492V109.752L52.1748 96.5391ZM67.8691 110.445H61.1821V108.753H67.8691C69.2656 108.753 70.3989 108.527 71.269 108.076C72.1499 107.614 72.7891 106.991 73.1865 106.207C73.5947 105.423 73.7988 104.542 73.7988 103.564C73.7988 102.608 73.5947 101.728 73.1865 100.922C72.7891 100.116 72.1499 99.4717 71.269 98.9883C70.3989 98.4941 69.2656 98.2471 67.8691 98.2471H61.875V120H59.8931V96.5391H67.8691C69.5879 96.5391 71.0327 96.8345 72.2036 97.4253C73.3853 98.0161 74.2769 98.8379 74.8784 99.8906C75.48 100.943 75.7808 102.157 75.7808 103.532C75.7808 104.972 75.48 106.212 74.8784 107.254C74.2769 108.286 73.3906 109.075 72.2197 109.623C71.0488 110.171 69.5986 110.445 67.8691 110.445ZM93.7954 118.308V120H81.6299V118.308H93.7954ZM82.21 96.5391V120H80.228V96.5391H82.21ZM112.213 118.308V120H99.0161V118.308H112.213ZM99.6123 96.5391V120H97.6304V96.5391H99.6123ZM110.569 107.061V108.753H99.0161V107.061H110.569ZM112.132 96.5391V98.2471H99.0161V96.5391H112.132ZM129.696 114.231C129.696 113.587 129.588 113.012 129.374 112.507C129.159 112.002 128.804 111.551 128.31 111.154C127.827 110.746 127.171 110.37 126.344 110.026C125.528 109.671 124.507 109.322 123.283 108.979C122.112 108.646 121.054 108.28 120.108 107.883C119.163 107.485 118.352 107.029 117.675 106.513C117.009 105.998 116.499 105.396 116.145 104.708C115.79 104.01 115.613 103.199 115.613 102.275C115.613 101.373 115.806 100.551 116.193 99.8101C116.58 99.0688 117.122 98.4297 117.82 97.8926C118.529 97.3555 119.362 96.9419 120.318 96.6519C121.285 96.3618 122.343 96.2168 123.492 96.2168C125.136 96.2168 126.554 96.5283 127.746 97.1514C128.949 97.7744 129.878 98.6177 130.534 99.6812C131.2 100.734 131.533 101.916 131.533 103.226H129.551C129.551 102.206 129.309 101.298 128.826 100.503C128.353 99.6973 127.666 99.0688 126.763 98.6177C125.872 98.1558 124.781 97.9248 123.492 97.9248C122.203 97.9248 121.118 98.1235 120.237 98.521C119.367 98.9077 118.707 99.4287 118.255 100.084C117.815 100.729 117.595 101.448 117.595 102.243C117.595 102.802 117.702 103.317 117.917 103.79C118.132 104.252 118.481 104.687 118.964 105.095C119.458 105.493 120.108 105.869 120.914 106.223C121.72 106.567 122.713 106.895 123.895 107.206C125.141 107.55 126.248 107.931 127.214 108.35C128.181 108.769 128.998 109.252 129.664 109.8C130.33 110.337 130.834 110.966 131.178 111.686C131.522 112.405 131.694 113.243 131.694 114.199C131.694 115.155 131.49 116.015 131.082 116.777C130.684 117.529 130.12 118.168 129.39 118.695C128.67 119.221 127.816 119.624 126.828 119.903C125.85 120.183 124.781 120.322 123.621 120.322C122.579 120.322 121.542 120.188 120.511 119.919C119.48 119.651 118.535 119.237 117.675 118.679C116.827 118.109 116.145 117.379 115.629 116.487C115.124 115.596 114.872 114.532 114.872 113.297H116.837C116.837 114.285 117.036 115.118 117.434 115.794C117.831 116.471 118.357 117.019 119.013 117.438C119.679 117.857 120.409 118.163 121.204 118.356C122.01 118.539 122.815 118.63 123.621 118.63C124.856 118.63 125.925 118.448 126.828 118.083C127.741 117.717 128.444 117.207 128.938 116.552C129.443 115.886 129.696 115.112 129.696 114.231ZM151.739 97.9409L143.618 120H141.555L150.417 96.5391H151.852L151.739 97.9409ZM159.119 120L150.981 97.9409L150.869 96.5391H152.303L161.181 120H159.119ZM157.668 111.718V113.426H145.213V111.718H157.668ZM177.939 114.231C177.939 113.587 177.832 113.012 177.617 112.507C177.402 112.002 177.047 111.551 176.553 111.154C176.07 110.746 175.415 110.37 174.587 110.026C173.771 109.671 172.75 109.322 171.526 108.979C170.355 108.646 169.297 108.28 168.352 107.883C167.406 107.485 166.595 107.029 165.918 106.513C165.252 105.998 164.742 105.396 164.388 104.708C164.033 104.01 163.856 103.199 163.856 102.275C163.856 101.373 164.049 100.551 164.436 99.8101C164.823 99.0688 165.365 98.4297 166.063 97.8926C166.772 97.3555 167.605 96.9419 168.561 96.6519C169.528 96.3618 170.586 96.2168 171.735 96.2168C173.379 96.2168 174.797 96.5283 175.989 97.1514C177.192 97.7744 178.122 98.6177 178.777 99.6812C179.443 100.734 179.776 101.916 179.776 103.226H177.794C177.794 102.206 177.552 101.298 177.069 100.503C176.596 99.6973 175.909 99.0688 175.006 98.6177C174.115 98.1558 173.024 97.9248 171.735 97.9248C170.446 97.9248 169.361 98.1235 168.48 98.521C167.61 98.9077 166.95 99.4287 166.499 100.084C166.058 100.729 165.838 101.448 165.838 102.243C165.838 102.802 165.945 103.317 166.16 103.79C166.375 104.252 166.724 104.687 167.208 105.095C167.702 105.493 168.352 105.869 169.157 106.223C169.963 106.567 170.957 106.895 172.138 107.206C173.384 107.55 174.491 107.931 175.458 108.35C176.424 108.769 177.241 109.252 177.907 109.8C178.573 110.337 179.078 110.966 179.421 111.686C179.765 112.405 179.937 113.243 179.937 114.199C179.937 115.155 179.733 116.015 179.325 116.777C178.927 117.529 178.363 118.168 177.633 118.695C176.913 119.221 176.059 119.624 175.071 119.903C174.093 120.183 173.024 120.322 171.864 120.322C170.822 120.322 169.786 120.188 168.754 119.919C167.723 119.651 166.778 119.237 165.918 118.679C165.07 118.109 164.388 117.379 163.872 116.487C163.367 115.596 163.115 114.532 163.115 113.297H165.081C165.081 114.285 165.279 115.118 165.677 115.794C166.074 116.471 166.601 117.019 167.256 117.438C167.922 117.857 168.652 118.163 169.447 118.356C170.253 118.539 171.059 118.63 171.864 118.63C173.1 118.63 174.168 118.448 175.071 118.083C175.984 117.717 176.688 117.207 177.182 116.552C177.687 115.886 177.939 115.112 177.939 114.231ZM197.5 114.231C197.5 113.587 197.393 113.012 197.178 112.507C196.963 112.002 196.609 111.551 196.115 111.154C195.631 110.746 194.976 110.37 194.149 110.026C193.333 109.671 192.312 109.322 191.087 108.979C189.917 108.646 188.858 108.28 187.913 107.883C186.968 107.485 186.157 107.029 185.48 106.513C184.814 105.998 184.304 105.396 183.949 104.708C183.595 104.01 183.417 103.199 183.417 102.275C183.417 101.373 183.611 100.551 183.998 99.8101C184.384 99.0688 184.927 98.4297 185.625 97.8926C186.334 97.3555 187.167 96.9419 188.123 96.6519C189.089 96.3618 190.147 96.2168 191.297 96.2168C192.94 96.2168 194.358 96.5283 195.551 97.1514C196.754 97.7744 197.683 98.6177 198.338 99.6812C199.004 100.734 199.337 101.916 199.337 103.226H197.355C197.355 102.206 197.114 101.298 196.63 100.503C196.158 99.6973 195.47 99.0688 194.568 98.6177C193.676 98.1558 192.586 97.9248 191.297 97.9248C190.008 97.9248 188.923 98.1235 188.042 98.521C187.172 98.9077 186.511 99.4287 186.06 100.084C185.62 100.729 185.399 101.448 185.399 102.243C185.399 102.802 185.507 103.317 185.722 103.79C185.937 104.252 186.286 104.687 186.769 105.095C187.263 105.493 187.913 105.869 188.719 106.223C189.524 106.567 190.518 106.895 191.7 107.206C192.946 107.55 194.052 107.931 195.019 108.35C195.986 108.769 196.802 109.252 197.468 109.8C198.134 110.337 198.639 110.966 198.983 111.686C199.327 112.405 199.499 113.243 199.499 114.199C199.499 115.155 199.294 116.015 198.886 116.777C198.489 117.529 197.925 118.168 197.194 118.695C196.475 119.221 195.621 119.624 194.632 119.903C193.655 120.183 192.586 120.322 191.426 120.322C190.384 120.322 189.347 120.188 188.316 119.919C187.285 119.651 186.339 119.237 185.48 118.679C184.631 118.109 183.949 117.379 183.434 116.487C182.929 115.596 182.676 114.532 182.676 113.297H184.642C184.642 114.285 184.841 115.118 185.238 115.794C185.636 116.471 186.162 117.019 186.817 117.438C187.483 117.857 188.214 118.163 189.009 118.356C189.814 118.539 190.62 118.63 191.426 118.63C192.661 118.63 193.73 118.448 194.632 118.083C195.545 117.717 196.249 117.207 196.743 116.552C197.248 115.886 197.5 115.112 197.5 114.231ZM206.202 96.5391V120H204.22V96.5391H206.202ZM213.195 96.5391H215.193L223.862 117.196L232.547 96.5391H234.529L224.619 120H223.104L213.195 96.5391ZM212.583 96.5391H214.339L214.548 109.752V120H212.583V96.5391ZM233.417 96.5391H235.173V120H233.191V109.752L233.417 96.5391Z" fill="#D70D0F"/>
<path d="M27.72 83C25.32 83 23.07 82.55 20.97 81.65C18.87 80.69 17.04 79.4 15.48 77.78C13.92 76.16 12.66 74.3 11.7 72.2C10.8 70.04 10.35 67.76 10.35 65.36V38.99H2.88V29.54H10.35V16.94H19.8V29.54H30.06V38.99H19.8V65.63C19.8 66.71 19.98 67.73 20.34 68.69C20.76 69.65 21.33 70.49 22.05 71.21C22.77 71.93 23.61 72.53 24.57 73.01C25.53 73.43 26.58 73.64 27.72 73.64H34.29V83H27.72ZM46.4337 60.05L46.6137 60.77C47.0937 62.81 47.9037 64.64 49.0437 66.26C50.1837 67.82 51.5037 69.17 53.0037 70.31C54.5637 71.39 56.2137 72.23 57.9537 72.83C59.7537 73.43 61.4937 73.73 63.1737 73.73C66.4137 73.73 69.2637 72.98 71.7237 71.48C74.1837 69.92 76.2837 67.79 78.0237 65.09L86.5737 68.96C85.1337 71.54 83.4837 73.73 81.6237 75.53C79.7637 77.27 77.7837 78.71 75.6837 79.85C73.6437 80.93 71.5137 81.74 69.2937 82.28C67.1337 82.76 64.9737 83 62.8137 83C59.3337 83 56.0037 82.31 52.8237 80.93C49.6437 79.55 46.8537 77.66 44.4537 75.26C42.1137 72.86 40.2237 70.1 38.7837 66.98C37.4037 63.8 36.7137 60.47 36.7137 56.99C36.7137 53.33 37.3737 49.88 38.6937 46.64C40.0737 43.4 41.9337 40.55 44.2737 38.09C46.6737 35.63 49.4637 33.68 52.6437 32.24C55.8837 30.8 59.3637 30.08 63.0837 30.08C66.8037 30.08 70.2537 30.77 73.4337 32.15C76.6737 33.53 79.4937 35.42 81.8937 37.82C84.2937 40.22 86.1537 43.04 87.4737 46.28C88.8537 49.46 89.5437 52.88 89.5437 56.54C89.5437 56.9 89.5137 57.47 89.4537 58.25C89.4537 59.03 89.4537 59.63 89.4537 60.05H46.4337ZM78.9237 49.97C78.3837 48.59 77.6337 47.27 76.6737 46.01C75.7137 44.75 74.5737 43.64 73.2537 42.68C71.9337 41.66 70.4337 40.85 68.7537 40.25C67.0737 39.65 65.2137 39.35 63.1737 39.35C59.8737 39.35 56.7537 40.31 53.8137 42.23C50.8737 44.09 48.7137 46.73 47.3337 50.15L47.1537 50.69H79.1937L78.9237 49.97ZM148.175 83H138.725V77.78L137.825 78.5C135.425 80.48 132.875 81.95 130.175 82.91C127.535 83.81 124.655 84.26 121.535 84.26C117.875 84.26 114.425 83.57 111.185 82.19C107.945 80.81 105.095 78.92 102.635 76.52C100.235 74.12 98.3152 71.3 96.8752 68.06C95.4952 64.82 94.8052 61.34 94.8052 57.62C94.8052 53.96 95.4952 50.51 96.8752 47.27C98.3152 44.03 100.235 41.21 102.635 38.81C105.035 36.35 107.855 34.43 111.095 33.05C114.335 31.61 117.785 30.89 121.445 30.89C124.385 30.89 127.295 31.4 130.175 32.42C133.115 33.44 135.695 34.85 137.915 36.65L138.815 37.46L138.725 18.2H148.175V83ZM121.445 74.9C123.785 74.9 126.005 74.48 128.105 73.64C130.205 72.74 132.035 71.51 133.595 69.95C135.155 68.39 136.385 66.56 137.285 64.46C138.245 62.36 138.725 60.08 138.725 57.62C138.725 55.52 138.305 53.45 137.465 51.41C136.685 49.31 135.515 47.45 133.955 45.83C132.455 44.21 130.655 42.89 128.555 41.87C126.455 40.85 124.085 40.34 121.445 40.34C119.165 40.34 116.975 40.79 114.875 41.69C112.775 42.53 110.915 43.73 109.295 45.29C107.735 46.79 106.475 48.62 105.515 50.78C104.615 52.88 104.165 55.16 104.165 57.62C104.165 59.96 104.615 62.18 105.515 64.28C106.415 66.38 107.645 68.21 109.205 69.77C110.765 71.33 112.595 72.59 114.695 73.55C116.795 74.45 119.045 74.9 121.445 74.9ZM166.457 22.61C166.457 24.17 165.887 25.52 164.747 26.66C163.667 27.74 162.347 28.28 160.787 28.28C159.227 28.28 157.907 27.74 156.827 26.66C155.747 25.52 155.207 24.17 155.207 22.61C155.207 21.05 155.747 19.73 156.827 18.65C157.907 17.51 159.227 16.94 160.787 16.94C162.347 16.94 163.667 17.51 164.747 18.65C165.887 19.73 166.457 21.05 166.457 22.61ZM165.467 32.6V83H156.107V32.6H165.467ZM182.313 60.05L182.493 60.77C182.973 62.81 183.783 64.64 184.923 66.26C186.063 67.82 187.383 69.17 188.883 70.31C190.443 71.39 192.093 72.23 193.833 72.83C195.633 73.43 197.373 73.73 199.053 73.73C202.293 73.73 205.143 72.98 207.603 71.48C210.063 69.92 212.163 67.79 213.903 65.09L222.453 68.96C221.013 71.54 219.363 73.73 217.503 75.53C215.643 77.27 213.663 78.71 211.563 79.85C209.523 80.93 207.393 81.74 205.173 82.28C203.013 82.76 200.853 83 198.693 83C195.213 83 191.883 82.31 188.703 80.93C185.523 79.55 182.733 77.66 180.333 75.26C177.993 72.86 176.103 70.1 174.663 66.98C173.283 63.8 172.593 60.47 172.593 56.99C172.593 53.33 173.253 49.88 174.573 46.64C175.953 43.4 177.813 40.55 180.153 38.09C182.553 35.63 185.343 33.68 188.523 32.24C191.763 30.8 195.243 30.08 198.963 30.08C202.683 30.08 206.133 30.77 209.313 32.15C212.553 33.53 215.373 35.42 217.773 37.82C220.173 40.22 222.033 43.04 223.353 46.28C224.733 49.46 225.423 52.88 225.423 56.54C225.423 56.9 225.393 57.47 225.333 58.25C225.333 59.03 225.333 59.63 225.333 60.05H182.313ZM214.803 49.97C214.263 48.59 213.513 47.27 212.553 46.01C211.593 44.75 210.453 43.64 209.133 42.68C207.813 41.66 206.313 40.85 204.633 40.25C202.953 39.65 201.093 39.35 199.053 39.35C195.753 39.35 192.633 40.31 189.693 42.23C186.753 44.09 184.593 46.73 183.213 50.15L183.033 50.69H215.073L214.803 49.97Z" fill="#FFC600"/>
</svg>
